<?xml version="1.0" encoding="UTF-8"?>
<svg width="64" height="64" viewBox="0 0 64 64" xmlns="http://www.w3.org/2000/svg">
  <defs>
    <linearGradient id="gradient" x1="0%" y1="0%" x2="100%" y2="100%">
      <stop offset="0%" stop-color="#3498db" />
      <stop offset="100%" stop-color="#2c3e50" />
    </linearGradient>
    <linearGradient id="bookGradient" x1="0%" y1="0%" x2="100%" y2="100%">
      <stop offset="0%" stop-color="#2980b9" />
      <stop offset="100%" stop-color="#34495e" />
    </linearGradient>
  </defs>
  
  <!-- 背景圆形 -->
  <circle cx="32" cy="32" r="30" fill="url(#gradient)" stroke="#ecf0f1" stroke-width="2"/>
  
  <!-- 书本形状 -->
  <path d="M20,18 C20,18 20,46 20,46 C20,46 44,46 44,46 C44,46 44,18 44,18 C44,18 32,22 32,22 C32,22 20,18 20,18 Z" 
        fill="url(#bookGradient)" stroke="#ecf0f1" stroke-width="1"/>
  
  <!-- 书本中间的线 -->
  <path d="M32,22 L32,46" stroke="#ecf0f1" stroke-width="1.5"/>
  
  <!-- 字母E（代表English） -->
  <path d="M28,30 L38,30 M28,34 L36,34 M28,38 L38,38" 
        stroke="#ffffff" stroke-width="3" stroke-linecap="round"/>
  
  <!-- 问号（代表问题） -->
  <circle cx="28" cy="28" r="1.5" fill="#ffffff"/>
  <circle cx="36" cy="28" r="1.5" fill="#ffffff"/>
</svg>