<?xml version="1.0" encoding="UTF-8"?>
<svg xmlns="http://www.w3.org/2000/svg" style="display: none;">
  <defs>
    <!-- 用户相关图标 -->
    <symbol id="icon-user" viewBox="0 0 24 24">
      <path d="M12 12c2.21 0 4-1.79 4-4s-1.79-4-4-4-4 1.79-4 4 1.79 4 4 4zm0 2c-2.67 0-8 1.34-8 4v2h16v-2c0-2.66-5.33-4-8-4z"/>
    </symbol>
    
    <symbol id="icon-login" viewBox="0 0 24 24">
      <path d="M11 7L9.6 8.4l2.6 2.6H2v2h10.2l-2.6 2.6L11 17l5-5-5-5zm9 12h-8v2h8c1.1 0 2-.9 2-2V5c0-1.1-.9-2-2-2h-8v2h8v14z"/>
    </symbol>
    
    <symbol id="icon-logout" viewBox="0 0 24 24">
      <path d="M17 7l-1.41 1.41L18.17 11H8v2h10.17l-2.58 2.58L17 17l5-5zM4 5h8V3H4c-1.1 0-2 .9-2 2v14c0 1.1.9 2 2 2h8v-2H4V5z"/>
    </symbol>
    
    <symbol id="icon-register" viewBox="0 0 24 24">
      <path d="M15 12c2.21 0 4-1.79 4-4s-1.79-4-4-4-4 1.79-4 4 1.79 4 4 4zm-9-2V7H4v3H1v2h3v3h2v-3h3v-2H6zm9 4c-2.67 0-8 1.34-8 4v2h16v-2c0-2.66-5.33-4-8-4z"/>
    </symbol>
    
    <!-- 题目相关图标 -->
    <symbol id="icon-problem" viewBox="0 0 24 24">
      <path d="M19 3H5c-1.1 0-2 .9-2 2v14c0 1.1.9 2 2 2h14c1.1 0 2-.9 2-2V5c0-1.1-.9-2-2-2zm0 16H5V5h14v14z"/>
      <path d="M7 7h10v2H7zm0 4h10v2H7zm0 4h7v2H7z"/>
    </symbol>
    
    <symbol id="icon-create" viewBox="0 0 24 24">
      <path d="M19 13h-6v6h-2v-6H5v-2h6V5h2v6h6v2z"/>
    </symbol>
    
    <symbol id="icon-list" viewBox="0 0 24 24">
      <path d="M3 13h2v-2H3v2zm0 4h2v-2H3v2zm0-8h2V7H3v2zm4 4h14v-2H7v2zm0 4h14v-2H7v2zM7 7v2h14V7H7z"/>
    </symbol>
    
    <!-- 答题相关图标 -->
    <symbol id="icon-answer" viewBox="0 0 24 24">
      <path d="M9 16.17L4.83 12l-1.42 1.41L9 19 21 7l-1.41-1.41z"/>
    </symbol>
    
    <symbol id="icon-check" viewBox="0 0 24 24">
      <circle cx="12" cy="12" r="10" stroke-width="2" fill="none"/>
      <path d="M9 12l2 2 4-4" stroke-width="2" stroke-linecap="round" stroke-linejoin="round" fill="none"/>
    </symbol>
    
    <symbol id="icon-correct" viewBox="0 0 24 24">
      <path d="M12 2C6.48 2 2 6.48 2 12s4.48 10 10 10 10-4.48 10-10S17.52 2 12 2zm-2 15l-5-5 1.41-1.41L10 14.17l7.59-7.59L19 8l-9 9z"/>
    </symbol>
    
    <symbol id="icon-wrong" viewBox="0 0 24 24">
      <path d="M12 2C6.47 2 2 6.47 2 12s4.47 10 10 10 10-4.47 10-10S17.53 2 12 2zm5 13.59L15.59 17 12 13.41 8.41 17 7 15.59 10.59 12 7 8.41 8.41 7 12 10.59 15.59 7 17 8.41 13.41 12 17 15.59z"/>
    </symbol>
    
    <!-- 管理相关图标 -->
    <symbol id="icon-admin" viewBox="0 0 24 24">
      <path d="M12 1L3 5v6c0 5.55 3.84 10.74 9 12 5.16-1.26 9-6.45 9-12V5l-9-4zm0 10.99h7c-.53 4.12-3.28 7.79-7 8.94V12H5V6.3l7-3.11v8.8z"/>
    </symbol>
    
    <symbol id="icon-settings" viewBox="0 0 24 24">
      <path d="M19.43 12.98c.04-.32.07-.64.07-.98s-.03-.66-.07-.98l2.11-1.65c.19-.15.24-.42.12-.64l-2-3.46c-.12-.22-.39-.3-.61-.22l-2.49 1c-.52-.4-1.08-.73-1.69-.98l-.38-2.65C14.46 2.18 14.25 2 14 2h-4c-.25 0-.46.18-.49.42l-.38 2.65c-.61.25-1.17.59-1.69.98l-2.49-1c-.23-.09-.49 0-.61.22l-2 3.46c-.13.22-.07.49.12.64l2.11 1.65c-.04.32-.07.65-.07.98s.03.66.07.98l-2.11 1.65c-.19.15-.24.42-.12.64l2 3.46c.12.22.39.3.61.22l2.49-1c.52.4 1.08.73 1.69.98l.38 2.65c.03.24.24.42.49.42h4c.25 0 .46-.18.49-.42l.38-2.65c.61-.25 1.17-.59 1.69-.98l2.49 1c.23.09.49 0 .61-.22l2-3.46c.12-.22.07-.49-.12-.64l-2.11-1.65zM12 15.5c-1.93 0-3.5-1.57-3.5-3.5s1.57-3.5 3.5-3.5 3.5 1.57 3.5 3.5-1.57 3.5-3.5 3.5z"/>
    </symbol>
    
    <symbol id="icon-delete" viewBox="0 0 24 24">
      <path d="M6 19c0 1.1.9 2 2 2h8c1.1 0 2-.9 2-2V7H6v12zM19 4h-3.5l-1-1h-5l-1 1H5v2h14V4z"/>
    </symbol>
    
    <!-- 排名相关图标 -->
    <symbol id="icon-ranking" viewBox="0 0 24 24">
      <path d="M19 5h-2V3H7v2H5c-1.1 0-2 .9-2 2v1c0 2.55 1.92 4.63 4.39 4.94.63 1.5 1.98 2.63 3.61 2.96V19H7v2h10v-2h-4v-3.1c1.63-.33 2.98-1.46 3.61-2.96C19.08 12.63 21 10.55 21 8V7c0-1.1-.9-2-2-2zM5 8V7h2v3.82C5.84 10.4 5 9.3 5 8zm14 0c0 1.3-.84 2.4-2 2.82V7h2v1z"/>
    </symbol>
    
    <!-- 文件相关图标 -->
    <symbol id="icon-upload" viewBox="0 0 24 24">
      <path d="M9 16h6v-6h4l-7-7-7 7h4zm-4 2h14v2H5z"/>
    </symbol>
    
    <symbol id="icon-download" viewBox="0 0 24 24">
      <path d="M19 9h-4V3H9v6H5l7 7 7-7zM5 18v2h14v-2H5z"/>
    </symbol>
    
    <symbol id="icon-markdown" viewBox="0 0 24 24">
      <path d="M20.56 18H3.44C2.65 18 2 17.37 2 16.59V7.41C2 6.63 2.65 6 3.44 6h17.12c.79 0 1.44.63 1.44 1.41v9.18c0 .78-.65 1.41-1.44 1.41zM8 15h2v-3h1v3h2v-5h1l-4-4-4 4h1v5zm8-5h2v5h1v-5h2v-1h-5v1z"/>
    </symbol>
    
    <!-- 图片相关图标 -->
    <symbol id="icon-image" viewBox="0 0 24 24">
      <path d="M21 19V5c0-1.1-.9-2-2-2H5c-1.1 0-2 .9-2 2v14c0 1.1.9 2 2 2h14c1.1 0 2-.9 2-2zM8.5 13.5l2.5 3.01L14.5 12l4.5 6H5l3.5-4.5z"/>
    </symbol>
    
    <!-- 搜索和筛选图标 -->
    <symbol id="icon-search" viewBox="0 0 24 24">
      <path d="M15.5 14h-.79l-.28-.27C15.41 12.59 16 11.11 16 9.5 16 5.91 13.09 3 9.5 3S3 5.91 3 9.5 5.91 16 9.5 16c1.61 0 3.09-.59 4.23-1.57l.27.28v.79l5 4.99L20.49 19l-4.99-5zm-6 0C7.01 14 5 11.99 5 9.5S7.01 5 9.5 5 14 7.01 14 9.5 11.99 14 9.5 14z"/>
    </symbol>
    
    <symbol id="icon-filter" viewBox="0 0 24 24">
      <path d="M10 18h4v-2h-4v2zM3 6v2h18V6H3zm3 7h12v-2H6v2z"/>
    </symbol>
    
    <!-- 通知和消息图标 -->
    <symbol id="icon-notification" viewBox="0 0 24 24">
      <path d="M12 22c1.1 0 2-.9 2-2h-4c0 1.1.9 2 2 2zm6-6v-5c0-3.07-1.63-5.64-4.5-6.32V4c0-.83-.67-1.5-1.5-1.5s-1.5.67-1.5 1.5v.68C7.64 5.36 6 7.92 6 11v5l-2 2v1h16v-1l-2-2z"/>
    </symbol>
    
    <symbol id="icon-message" viewBox="0 0 24 24">
      <path d="M20 2H4c-1.1 0-1.99.9-1.99 2L2 22l4-4h14c1.1 0 2-.9 2-2V4c0-1.1-.9-2-2-2zm-2 12H6v-2h12v2zm0-3H6V9h12v2zm0-3H6V6h12v2z"/>
    </symbol>
  </defs>
</svg>